<svg width="170" height="170" viewBox="0 0 170 170" fill="none" xmlns="http://www.w3.org/2000/svg">
<rect width="170" height="170" rx="50" fill="#010101"/>
<path d="M13.8906 120V114.094L21.5312 112.781V59.0156L13.8906 57.7031V51.75H30.8594L64.3281 104.953L64.6094 104.859V59.0156L56.2188 57.7031V51.75H80.7344V57.7031L73.0938 59.0156V120H64.6562L30.2969 66.5156L30.0156 66.6094V112.781L38.4062 114.094V120H13.8906ZM88.4219 120V114.094L96.0625 112.781V59.0156L88.4219 57.7031V51.75H112.938V57.7031L105.297 59.0156V82.5938H137.922V59.0156L130.281 57.7031V51.75H154.797V57.7031L147.156 59.0156V112.781L154.797 114.094V120H130.281V114.094L137.922 112.781V89.8594H105.297V112.781L112.938 114.094V120H88.4219Z" fill="white"/>
</svg>
