<?xml version="1.0" encoding="utf-8"?><svg viewBox="0 0 150 150" xmlns="http://www.w3.org/2000/svg" xmlns:xlink="http://www.w3.org/1999/xlink"><style>:root>svg{display:none}:root>svg:target{display:block}</style><svg fill="none" viewBox="0 0 22 22" id="close" xmlns="http://www.w3.org/2000/svg"><path d="M1 21L21 1M1 1l20 20" stroke="#fff" stroke-width=".5" stroke-linecap="round"/></svg><svg fill="none" viewBox="0 0 150 150" id="completed" xmlns="http://www.w3.org/2000/svg"><circle cx="75" cy="75" r="74" stroke="#fff" stroke-width="2"/><path d="M53 60.75c0 3.806-.814 7.202-2.082 9.61C49.627 72.816 48.015 74 46.5 74c-1.515 0-3.127-1.185-4.418-3.64C40.814 67.953 40 64.556 40 60.75c0-3.806.814-7.202 2.082-9.61 1.291-2.455 2.903-3.64 4.418-3.64 1.515 0 3.127 1.185 4.418 3.64C52.186 53.547 53 56.944 53 60.75zM108.5 60.75c0 3.806-.814 7.202-2.082 9.61C105.127 72.816 103.515 74 102 74c-1.515 0-3.127-1.185-4.418-3.64-1.268-2.408-2.082-5.804-2.082-9.61 0-3.806.814-7.202 2.082-9.61 1.291-2.455 2.903-3.64 4.418-3.64 1.515 0 3.127 1.185 4.418 3.64 1.268 2.408 2.082 5.804 2.082 9.61zM74.25 126.5c-10.76 0-20.552-9.682-26.32-25h52.64c-5.768 15.318-15.56 25-26.32 25z" stroke="#fff" stroke-width="2"/></svg><svg fill="none" viewBox="0 0 9 5" id="drop-down-icon" xmlns="http://www.w3.org/2000/svg"><path d="M1 1l3.5 3L8 1" stroke="#fff" stroke-linecap="round"/></svg><svg fill="none" viewBox="0 0 17 17" id="full" xmlns="http://www.w3.org/2000/svg"><path d="M16 5.5V1h-4.5M1 11.5V16h4.5M5.5 1H1v4.5M11.5 16H16v-4.5" stroke="#fff" stroke-linecap="round"/></svg><svg fill="none" viewBox="0 0 17 17" id="full-opposite" xmlns="http://www.w3.org/2000/svg"><path d="M11.5 1v4.5H16M5.5 16v-4.5H1M1.001 5.5h4.5V1M16 11.5h-4.5V16" stroke="#fff" stroke-linecap="round"/></svg><svg fill="none" viewBox="0 0 19 17" id="mute" xmlns="http://www.w3.org/2000/svg"><path d="M9.036 16V1L3.679 5.286H1v6.964h2.679L9.036 16z" stroke="#fff" stroke-linecap="round" stroke-linejoin="round"/><path d="M18.143 14.929V3.143M11.714 12.25V5.82M14.929 13.321V4.75M2 1l15 15" stroke="#fff" stroke-linecap="round"/></svg><svg fill="none" viewBox="0 0 150 150" id="notcompleted" xmlns="http://www.w3.org/2000/svg"><circle cx="75" cy="75" r="74" stroke="#fff" stroke-width="2"/><path d="M53 60.75c0 3.806-.814 7.202-2.082 9.61C49.627 72.816 48.015 74 46.5 74c-1.515 0-3.127-1.185-4.418-3.64C40.814 67.953 40 64.556 40 60.75c0-3.806.814-7.202 2.082-9.61 1.291-2.455 2.903-3.64 4.418-3.64 1.515 0 3.127 1.185 4.418 3.64C52.186 53.547 53 56.944 53 60.75zM108.5 60.75c0 3.806-.814 7.202-2.082 9.61C105.127 72.816 103.515 74 102 74c-1.515 0-3.127-1.185-4.418-3.64-1.268-2.408-2.082-5.804-2.082-9.61 0-3.806.814-7.202 2.082-9.61 1.291-2.455 2.903-3.64 4.418-3.64 1.515 0 3.127 1.185 4.418 3.64 1.268 2.408 2.082 5.804 2.082 9.61zM74.75 94c10.76 0 20.552 9.682 26.32 25H48.43c5.768-15.318 15.56-25 26.32-25z" stroke="#fff" stroke-width="2"/></svg><svg fill="none" viewBox="0 0 13 17" id="pause" xmlns="http://www.w3.org/2000/svg"><path d="M12 16V1M1 16V1" stroke="#fff" stroke-linecap="round"/></svg><svg fill="none" viewBox="0 0 13 17" id="play" xmlns="http://www.w3.org/2000/svg"><path d="M12.25 8.5L1 16V1l11.25 7.5z" stroke="#fff" stroke-linecap="round" stroke-linejoin="round"/></svg><svg fill="none" viewBox="0 0 19 17" id="sound" xmlns="http://www.w3.org/2000/svg"><path d="M9.036 16V1L3.679 5.286H1v6.964h2.679L9.036 16z" stroke="#fff" stroke-linecap="round" stroke-linejoin="round"/><path d="M18.143 14.929V3.143M11.714 12.25V5.82M14.929 13.321V4.75" stroke="#fff" stroke-linecap="round"/></svg></svg>