<?xml version="1.0" encoding="utf-8"?><svg viewBox="0 0 22 22" xmlns="http://www.w3.org/2000/svg" xmlns:xlink="http://www.w3.org/1999/xlink"><style>:root>svg{display:none}:root>svg:target{display:block}</style><svg fill="none" viewBox="0 0 22 22" id="close" xmlns="http://www.w3.org/2000/svg"><path d="M1 21L21 1M1 1l20 20" stroke="#fff" stroke-width=".5" stroke-linecap="round"/></svg><svg fill="none" viewBox="0 0 17 17" id="full" xmlns="http://www.w3.org/2000/svg"><path d="M16 5.5V1h-4.5M1 11.5V16h4.5M5.5 1H1v4.5M11.5 16H16v-4.5" stroke="#fff" stroke-linecap="round"/></svg><svg fill="none" viewBox="0 0 17 17" id="full-opposite" xmlns="http://www.w3.org/2000/svg"><path d="M11.5 1v4.5H16M5.5 16v-4.5H1M1.001 5.5h4.5V1M16 11.5h-4.5V16" stroke="#fff" stroke-linecap="round"/></svg><svg fill="none" viewBox="0 0 19 17" id="mute" xmlns="http://www.w3.org/2000/svg"><path d="M9.036 16V1L3.679 5.286H1v6.964h2.679L9.036 16z" stroke="#fff" stroke-linecap="round" stroke-linejoin="round"/><path d="M18.143 14.929V3.143M11.714 12.25V5.82M14.929 13.321V4.75M2 1l15 15" stroke="#fff" stroke-linecap="round"/></svg><svg fill="none" viewBox="0 0 13 17" id="pause" xmlns="http://www.w3.org/2000/svg"><path d="M12 16V1M1 16V1" stroke="#fff" stroke-linecap="round"/></svg><svg fill="none" viewBox="0 0 13 17" id="play" xmlns="http://www.w3.org/2000/svg"><path d="M12.25 8.5L1 16V1l11.25 7.5z" stroke="#fff" stroke-linecap="round" stroke-linejoin="round"/></svg><svg fill="none" viewBox="0 0 19 17" id="sound" xmlns="http://www.w3.org/2000/svg"><path d="M9.036 16V1L3.679 5.286H1v6.964h2.679L9.036 16z" stroke="#fff" stroke-linecap="round" stroke-linejoin="round"/><path d="M18.143 14.929V3.143M11.714 12.25V5.82M14.929 13.321V4.75" stroke="#fff" stroke-linecap="round"/></svg></svg>