<?xml version="1.0" encoding="UTF-8"?><svg viewBox="0 0 18 18" xmlns="http://www.w3.org/2000/svg" xmlns:xlink="http://www.w3.org/1999/xlink"><style>:root>svg{display:none}:root>svg:target{display:block}</style><svg viewBox="0 0 18 18" id="zoom" xmlns="http://www.w3.org/2000/svg"><g fill="none" fill-rule="evenodd"><path d="M-3-3h24v24H-3z"/><path d="M14.3 2.3l-2.89 2.87 1.42 1.42L15.7 3.7 18 6V0h-6l2.3 2.3zM6 0H0v6l2.3-2.3 2.87 2.89 1.42-1.42L3.7 2.3 6 0zm-.83 11.41L2.3 14.3 0 12v6h6l-2.3-2.3 2.89-2.87-1.42-1.42zm7.66 0l-1.42 1.42 2.89 2.87L12 18h6v-6l-2.3 2.3-2.87-2.89z" fill="#1D1D1D"/></g></svg></svg>